{"glyphs":{":":{"x_min":0,"x_max":290,"ha":290,"o":"m 277 345 q 269 306 243 284 q 217 261 169 261 q 113 261 84 292 q 54 324 66 384 q 74 424 102 446 q 130 467 181 467 q 202 467 222 459 q 242 451 256 436 q 270 420 276 398 q 283 375 277 345 z m 226 83 q 218 44 192 22 q 166 -1 118 -1 q 62 -1 32 30 q 3 62 15 122 q 23 162 51 184 q 79 205 130 205 q 151 205 171 197 q 191 189 205 174 q 219 158 226 136 q 232 113 226 83 z"},"$":{"x_min":0,"x_max":533,"ha":533,"o":"m 390 683 q 437 678 472 666 q 506 653 526 636 q 521 597 518 554 q 514 510 515 481 q 465 465 404 471 q 403 546 369 581 q 361 542 354 506 q 347 469 339 433 q 371 415 404 394 q 436 373 460 344 q 485 316 496 276 q 508 237 499 183 q 492 143 471 110 q 450 78 418 54 q 387 29 346 14 q 304 -2 257 -7 l 243 -85 q 220 -85 198 -81 q 175 -77 156 -66 l 167 -8 q 138 -6 115 0 q 92 5 72 14 q 51 22 32 34 q 14 46 -7 62 q 21 136 31 218 q 60 223 90 224 q 120 225 149 219 q 140 117 186 87 l 218 254 q 189 272 160 294 q 132 316 112 347 q 92 378 83 420 q 74 462 85 520 q 99 593 158 634 q 218 675 301 683 l 316 758 q 340 758 360 755 q 381 752 402 743 z m 286 604 q 266 600 252 589 q 239 578 235 558 q 230 535 238 517 q 246 499 263 484 z m 272 78 q 292 85 307 98 q 322 112 325 131 q 329 154 320 171 q 312 188 295 202 z"},"?":{"x_min":0,"x_max":533,"ha":533,"o":"m 152 672 q 193 694 240 706 q 286 717 332 717 q 443 717 496 679 q 548 641 534 570 q 528 537 510 514 q 493 490 470 471 q 448 452 422 436 q 397 419 374 400 q 352 382 334 358 q 317 334 310 300 q 308 285 308 272 q 308 259 310 242 q 293 231 268 226 q 243 221 220 223 q 198 238 188 274 q 177 311 185 351 q 194 397 216 424 q 238 452 262 473 q 287 494 308 516 q 330 538 337 574 q 344 610 333 625 q 322 640 304 640 q 294 640 284 634 q 275 629 266 614 q 256 599 245 573 q 234 547 221 506 q 188 506 166 512 q 144 517 124 529 q 137 571 144 604 q 150 636 152 672 z m 340 74 q 332 35 306 12 q 280 -10 232 -10 q 176 -10 146 22 q 117 53 129 113 q 137 153 165 174 q 193 196 244 196 q 265 196 285 188 q 305 180 319 164 q 333 149 340 126 q 346 104 340 74 z"},"<":{"x_min":0,"x_max":498,"ha":498,"o":"m 356 51 q 357 24 350 -2 q 344 -27 332 -39 q 243 45 170 110 q 97 174 30 229 q 28 250 34 276 q 41 301 53 321 l 383 545 q 430 539 455 499 l 109 264 z"},"'":{"x_min":0,"x_max":233,"ha":233,"o":"m 246 717 q 264 709 268 688 q 271 666 258 635 q 243 599 226 541 q 209 483 192 411 q 172 411 153 414 q 134 418 118 426 q 129 493 134 562 q 140 630 140 687 q 170 690 197 698 q 224 705 246 717 z"},"=":{"x_min":0,"x_max":530,"ha":530,"o":"m 529 390 q 528 367 522 344 q 515 320 502 303 q 446 303 392 303 q 339 303 284 302 q 229 302 170 301 q 110 300 41 299 q 42 323 49 347 q 56 371 69 390 z m 498 207 q 497 184 490 160 q 484 137 471 120 q 415 120 362 120 q 308 120 253 120 q 198 119 138 118 q 79 117 10 116 q 11 140 18 164 q 25 188 38 207 z"},"a":{"x_min":0,"x_max":610,"ha":610,"o":"m 519 184 q 513 158 510 142 q 508 127 508 118 q 509 110 512 107 q 515 104 520 104 q 527 104 534 107 q 541 110 554 118 q 564 108 574 88 q 584 69 586 52 q 553 20 515 6 q 477 -9 430 -9 q 398 -9 377 0 q 356 10 344 26 q 333 43 330 64 q 327 86 330 110 l 329 110 q 288 52 238 22 q 188 -9 135 -9 q 87 -9 58 16 q 30 40 18 76 q 5 113 4 155 q 4 197 11 232 q 20 278 41 320 q 62 363 98 396 q 135 428 188 448 q 242 467 314 467 q 349 467 378 462 q 406 458 429 450 q 458 453 485 457 q 512 461 538 467 q 559 450 565 430 q 571 410 564 379 z m 368 382 q 356 387 338 390 q 319 393 307 393 q 288 393 274 383 q 259 373 248 356 q 237 339 230 315 q 222 291 216 264 q 203 196 207 160 q 211 124 240 124 q 252 124 268 134 q 283 144 299 168 q 315 192 330 233 q 345 274 357 336 z"},"L":{"x_min":0,"x_max":640,"ha":640,"o":"m 376 75 q 427 75 460 113 q 494 151 518 225 q 580 212 620 179 q 614 164 607 143 q 600 122 594 98 q 588 74 582 48 q 577 22 574 -3 q 548 -2 516 -2 q 483 -1 448 0 q 414 0 379 0 q 344 0 314 0 q 286 0 242 0 q 197 0 151 0 q 105 -1 66 -2 q 27 -2 10 -3 q 12 18 16 36 q 21 55 29 75 q 49 77 61 82 q 73 87 81 100 q 89 112 94 136 q 99 159 106 197 l 159 501 q 164 530 165 548 q 166 567 160 578 q 155 588 142 593 q 130 598 109 601 q 105 618 105 638 q 105 659 108 679 q 145 677 186 676 q 228 676 281 676 q 300 676 324 676 q 347 676 372 676 q 397 677 422 678 q 446 678 468 679 q 468 660 465 640 q 462 621 454 601 q 427 598 410 593 q 394 588 384 576 q 374 563 368 540 q 361 518 355 481 l 303 182 q 297 147 296 126 q 296 105 302 94 q 309 83 322 79 q 336 75 359 75 z"},"3":{"x_min":0,"x_max":473,"ha":473,"o":"m 455 357 q 448 322 419 292 q 390 261 329 234 q 388 207 414 156 q 440 106 423 28 q 412 -20 382 -57 q 353 -94 308 -120 q 263 -145 205 -158 q 147 -171 80 -171 q 45 -171 14 -163 q -16 -155 -33 -141 q -33 -134 -29 -124 q -25 -114 -20 -104 q -15 -94 -10 -86 q -4 -78 1 -75 q 34 -91 86 -91 q 211 -91 233 11 q 246 72 215 107 q 184 142 123 138 q 113 152 110 176 q 107 200 112 219 q 175 233 218 260 q 260 288 269 340 q 277 382 262 408 q 248 433 216 433 q 204 433 195 427 q 186 421 179 406 q 172 392 165 367 q 158 342 150 304 q 143 303 128 305 q 113 307 96 310 q 79 313 64 317 q 50 321 45 323 q 54 352 59 389 q 64 426 65 458 q 109 484 158 496 q 206 509 268 509 q 379 509 424 468 q 468 427 455 357 z"},";":{"x_min":0,"x_max":289,"ha":289,"o":"m 276 345 q 268 306 242 284 q 216 261 168 261 q 112 261 82 292 q 53 324 65 384 q 73 424 101 446 q 129 467 180 467 q 201 467 221 459 q 241 451 255 436 q 269 420 276 398 q 282 375 276 345 z m 182 185 q 201 177 212 150 q 223 123 212 65 q 198 -14 156 -78 q 113 -141 54 -184 q 9 -178 -8 -147 q 28 -113 50 -82 q 72 -50 76 -26 q 80 -1 64 16 q 49 33 11 38 q 11 99 42 148 q 82 150 119 160 q 156 170 182 185 z"},"J":{"x_min":0,"x_max":414,"ha":414,"o":"m 165 498 q 171 529 172 548 q 173 568 168 579 q 163 590 151 594 q 139 599 118 601 q 113 620 114 640 q 114 659 116 679 q 152 677 197 676 q 242 676 288 676 q 333 676 378 676 q 423 677 456 679 q 454 635 444 601 q 424 599 412 595 q 399 591 390 579 q 382 567 376 543 q 369 519 362 478 l 300 125 q 288 56 269 0 q 250 -56 214 -101 q 179 -146 122 -182 q 64 -218 -24 -246 q -43 -230 -49 -208 q -55 -185 -55 -159 q -25 -144 -2 -126 q 21 -108 38 -82 q 56 -55 69 -18 q 82 19 91 72 z"},"V":{"x_min":0,"x_max":690,"ha":690,"o":"m 665 676 q 693 676 714 676 q 736 677 768 679 q 766 637 754 601 q 741 598 731 592 q 721 585 710 572 q 700 558 688 536 q 677 515 661 482 q 632 423 602 364 q 571 306 538 246 q 505 187 470 126 q 434 64 395 0 q 375 -6 350 -8 q 326 -9 304 -9 q 272 120 237 248 q 202 377 166 500 q 157 531 150 550 q 142 568 134 578 q 127 589 118 594 q 108 598 94 601 q 91 615 90 636 q 90 656 93 679 q 112 678 135 678 q 158 677 180 676 q 202 676 220 676 q 239 676 250 676 q 263 676 284 676 q 305 676 329 676 q 353 677 378 678 q 404 678 428 679 q 427 655 423 635 q 419 615 414 601 q 371 596 364 571 q 357 546 371 494 q 390 425 404 360 q 419 295 432 219 q 483 304 516 368 q 550 433 572 485 q 586 518 590 539 q 595 560 592 573 q 588 586 577 592 q 566 598 549 601 q 542 636 548 679 q 573 677 608 676 q 643 676 665 676 z"},"\"":{"x_min":0,"x_max":403,"ha":403,"o":"m 246 717 q 264 709 268 688 q 271 666 258 635 q 243 599 226 541 q 209 483 192 411 q 172 411 153 414 q 134 418 118 426 q 129 493 134 562 q 140 630 140 687 q 170 690 197 698 q 224 705 246 717 z m 416 717 q 434 709 438 688 q 441 666 428 635 q 413 599 396 541 q 379 483 362 411 q 342 411 323 414 q 304 418 288 426 q 299 493 304 562 q 310 630 310 687 q 340 690 367 698 q 394 705 416 717 z"},"7":{"x_min":0,"x_max":451,"ha":451,"o":"m 220 341 q 184 341 162 325 q 140 309 121 267 q 100 265 74 268 q 49 272 31 281 q 50 335 62 394 q 75 453 80 503 q 123 501 171 500 q 219 500 270 500 q 288 500 312 500 q 335 500 360 500 q 384 501 408 502 q 433 502 453 503 q 464 484 470 462 q 475 441 473 421 q 426 361 394 318 q 363 275 342 242 q 322 209 309 182 q 296 156 285 129 q 271 93 262 38 q 254 -16 254 -107 q 215 -115 175 -132 q 135 -148 104 -170 q 86 -163 75 -145 q 64 -127 64 -101 q 64 -79 70 -51 q 75 -23 100 26 q 125 74 177 150 q 229 225 322 341 z"},"S":{"x_min":0,"x_max":533,"ha":533,"o":"m 343 685 q 408 685 454 670 q 501 656 526 636 q 521 597 518 554 q 514 510 515 481 q 465 465 404 471 q 402 536 378 570 q 353 605 305 605 q 277 605 258 594 q 240 583 235 558 q 230 532 240 512 q 251 493 271 476 q 291 460 318 445 q 345 430 373 413 q 401 396 428 376 q 454 356 472 328 q 491 301 499 266 q 507 230 499 183 q 491 139 466 104 q 442 68 404 43 q 366 18 317 4 q 268 -9 213 -9 q 172 -9 142 -5 q 111 -1 86 8 q 62 16 40 30 q 17 43 -7 62 q 21 136 31 218 q 60 223 90 224 q 120 225 149 219 q 136 73 240 73 q 270 73 295 89 q 320 105 325 131 q 330 163 311 185 q 292 207 261 227 q 230 247 194 270 q 158 292 130 324 q 101 357 86 404 q 72 451 85 520 q 92 561 116 592 q 139 623 174 644 q 208 664 252 674 q 295 685 343 685 z"},"}":{"x_min":0,"x_max":379,"ha":379,"o":"m 135 754 q 202 732 238 706 q 273 679 288 650 q 302 620 301 588 q 300 556 293 524 q 286 491 278 459 q 271 427 274 397 q 276 367 293 340 q 310 313 352 291 q 358 276 358 260 q 357 243 352 229 q 304 213 279 183 q 254 153 242 116 q 229 78 224 35 q 220 -8 214 -51 q 207 -94 194 -134 q 181 -175 152 -206 q 122 -238 71 -258 q 20 -279 -62 -283 q -73 -264 -72 -246 q -71 -227 -61 -208 q -14 -203 10 -184 q 35 -164 45 -134 q 55 -104 56 -67 q 57 -30 57 10 q 57 49 61 88 q 65 127 82 160 q 98 194 132 219 q 165 244 224 256 q 166 269 138 291 q 109 313 100 340 q 92 367 98 398 q 105 430 117 462 q 129 495 141 528 q 153 560 156 590 q 159 620 148 646 q 136 671 101 690 q 103 708 112 726 q 120 743 135 754 z"},"Z":{"x_min":0,"x_max":559,"ha":559,"o":"m 323 601 q 300 601 282 594 q 263 587 247 570 q 231 553 216 524 q 201 495 185 451 q 117 454 79 482 q 88 503 97 528 q 106 554 114 580 q 121 607 126 632 q 132 658 136 679 q 155 678 184 678 q 213 677 244 676 q 276 676 308 676 q 339 676 362 676 q 388 676 418 676 q 449 676 480 676 q 510 677 538 678 q 566 678 588 679 q 599 663 604 644 q 608 626 606 600 q 559 531 514 466 q 470 402 425 338 q 380 274 334 209 q 287 144 235 75 l 259 75 q 292 75 316 82 q 341 89 360 106 q 380 123 396 151 q 413 179 430 221 q 462 216 486 206 q 511 197 534 180 q 526 161 518 138 q 509 114 502 90 q 494 65 488 41 q 482 17 479 -3 q 451 -2 418 -2 q 385 -1 352 0 q 319 0 287 0 q 255 0 228 0 q 165 0 108 0 q 50 -1 6 -3 q -4 12 -10 32 q -15 53 -14 78 q 40 148 89 213 q 138 278 184 341 q 229 404 274 468 q 318 532 365 601 z"},"x":{"x_min":0,"x_max":533,"ha":533,"o":"m 510 269 q 487 258 464 254 q 440 250 412 252 q 414 271 405 282 q 396 294 382 294 q 362 294 348 258 q 354 232 366 202 q 377 171 390 145 q 401 124 412 117 q 424 110 439 110 q 454 110 462 118 q 476 104 484 88 q 491 71 493 52 q 481 38 464 27 q 446 16 426 8 q 407 0 387 -4 q 367 -9 349 -9 q 309 -9 279 5 q 249 19 233 44 q 220 64 212 83 q 204 102 201 118 q 163 49 120 20 q 76 -9 25 -9 q -6 -9 -25 3 q -19 21 -14 44 q -10 67 -6 90 q -3 114 -1 137 q 1 160 1 178 q 24 189 50 192 q 77 195 105 193 q 103 174 111 163 q 119 152 130 152 q 138 152 145 156 q 152 161 159 173 q 154 202 146 232 q 137 263 127 292 q 121 310 114 322 q 106 334 96 340 q 86 347 72 349 q 59 351 40 350 q 38 371 42 390 q 45 409 51 426 q 71 427 96 431 q 122 435 148 441 q 174 447 198 454 q 221 460 236 467 q 253 464 266 454 q 279 443 286 414 q 294 382 298 356 q 302 329 302 312 q 344 398 390 432 q 436 467 493 467 q 524 467 547 455 q 531 411 521 364 q 511 318 510 269 z"},")":{"x_min":0,"x_max":335,"ha":335,"o":"m 297 245 q 283 166 261 98 q 239 30 205 -32 q 171 -94 125 -152 q 79 -211 17 -271 q -3 -271 -24 -267 q -44 -263 -60 -252 q -17 -194 16 -138 q 48 -83 72 -26 q 96 31 114 92 q 131 154 143 224 q 170 379 164 499 q 157 619 116 719 q 131 730 150 736 q 170 741 187 741 q 267 623 294 502 q 320 381 297 245 z"},"&":{"x_min":0,"x_max":818,"ha":818,"o":"m 790 130 q 796 125 802 117 q 807 109 812 100 q 817 90 820 81 q 823 72 823 65 q 814 53 796 40 q 778 27 754 16 q 730 5 702 -2 q 674 -9 645 -9 q 598 -9 564 -3 q 531 3 496 27 q 448 10 395 0 q 342 -9 285 -9 q 211 -9 154 4 q 98 16 62 43 q 25 70 10 112 q -4 153 7 211 q 14 249 32 276 q 51 304 78 324 q 104 345 136 359 q 168 373 203 384 q 180 421 168 450 q 155 478 149 502 q 143 527 143 548 q 143 570 147 593 q 151 617 166 640 q 181 662 212 680 q 242 697 290 707 q 338 717 408 717 q 526 717 580 674 q 634 632 619 556 q 611 517 593 490 q 575 463 550 444 q 524 425 493 412 q 462 398 430 386 q 444 368 460 348 q 475 327 493 304 q 529 258 556 226 q 583 194 604 172 q 635 210 644 254 q 654 305 626 328 q 598 350 540 350 q 540 393 552 426 q 572 427 598 432 q 624 436 650 442 q 676 448 700 454 q 724 461 739 467 q 773 456 788 420 q 804 383 791 315 q 781 262 749 213 q 717 164 667 122 q 682 115 696 114 q 709 112 726 112 q 758 112 790 130 z m 335 593 q 330 566 340 534 q 351 502 385 450 q 415 467 436 491 q 456 515 463 550 q 471 588 454 615 q 437 642 398 642 q 372 642 356 628 q 339 615 335 593 z m 210 201 q 204 168 212 143 q 219 118 236 100 q 253 83 278 74 q 304 66 333 66 q 386 66 437 78 q 412 104 383 139 q 354 174 317 222 q 301 243 287 262 q 273 282 260 299 q 242 281 229 257 q 216 233 210 201 z"},"_":{"x_min":0,"x_max":526,"ha":526,"o":"m 440 -69 q 439 -92 432 -116 q 426 -139 413 -156 q 357 -156 304 -156 q 250 -156 195 -156 q 140 -157 80 -158 q 21 -159 -48 -160 q -47 -136 -40 -112 q -33 -88 -20 -69 z"},"v":{"x_min":0,"x_max":566,"ha":566,"o":"m 503 467 q 532 458 546 434 q 559 411 559 366 q 559 325 544 284 q 528 242 492 197 q 455 152 395 102 q 335 51 246 -9 q 223 -9 196 -4 q 169 0 153 11 q 136 102 119 173 q 102 244 87 292 q 76 326 60 339 q 43 352 4 350 q 4 393 16 426 q 36 427 62 432 q 88 436 114 442 q 140 448 164 454 q 188 461 203 467 q 223 461 232 450 q 241 439 249 411 q 270 338 285 268 q 300 198 311 129 q 354 174 370 209 q 385 244 385 278 q 385 314 364 333 q 343 352 304 350 q 304 393 316 426 q 336 427 362 432 q 388 436 414 442 q 440 448 464 454 q 488 461 503 467 z"},"O":{"x_min":0,"x_max":742,"ha":742,"o":"m 444 685 q 524 685 586 660 q 647 635 686 589 q 724 543 738 478 q 752 413 737 334 q 722 257 688 194 q 653 131 601 86 q 549 41 483 16 q 417 -9 339 -9 q 256 -9 195 18 q 134 45 96 93 q 59 141 46 207 q 34 273 49 351 q 64 431 100 493 q 136 555 188 598 q 239 641 304 663 q 370 685 444 685 z m 434 610 q 370 610 324 542 q 277 473 254 355 q 242 295 241 243 q 240 191 251 152 q 262 113 286 91 q 310 69 348 69 q 381 69 410 90 q 438 110 462 147 q 486 184 504 236 q 523 289 535 353 q 545 407 543 454 q 541 500 528 535 q 516 570 492 590 q 468 610 434 610 z"},"(":{"x_min":0,"x_max":347,"ha":347,"o":"m 394 719 q 355 675 325 629 q 295 583 272 531 q 249 479 232 419 q 215 359 202 286 q 175 129 184 -10 q 192 -150 232 -255 q 217 -264 198 -268 q 179 -271 159 -271 q 123 -217 96 -152 q 70 -88 56 -18 q 41 51 39 124 q 37 198 49 270 q 62 343 82 405 q 101 467 132 524 q 163 580 208 634 q 253 687 317 741 q 340 743 361 736 q 382 730 394 719 z"},"C":{"x_min":0,"x_max":623,"ha":623,"o":"m 442 685 q 503 685 558 674 q 612 662 660 632 q 636 561 627 477 q 607 469 582 467 q 557 465 532 470 q 537 512 532 538 q 528 565 516 580 q 504 596 486 602 q 467 608 444 608 q 405 608 374 586 q 342 564 318 528 q 294 491 278 444 q 262 397 253 347 q 243 291 246 243 q 248 195 266 160 q 283 125 316 105 q 349 85 400 85 q 432 85 468 94 q 505 102 548 123 q 560 110 566 92 q 571 75 573 54 q 525 23 469 7 q 413 -9 343 -9 q 261 -9 200 18 q 138 46 100 95 q 63 144 50 212 q 37 280 51 362 q 65 443 104 504 q 142 564 196 604 q 250 645 314 665 q 377 685 442 685 z"},"W":{"x_min":0,"x_max":978,"ha":978,"o":"m 953 676 q 981 676 1002 676 q 1024 677 1056 679 q 1054 637 1042 601 q 1029 598 1017 590 q 1005 583 992 566 q 979 549 964 520 q 950 492 931 448 q 883 335 832 222 q 781 110 725 -3 q 717 -5 704 -6 q 691 -6 676 -6 q 661 -5 646 -2 q 631 0 619 3 q 608 57 598 106 q 588 154 578 202 q 567 249 555 296 q 543 344 529 396 q 481 294 430 195 q 378 96 324 -4 q 314 -6 300 -6 q 286 -7 272 -6 q 257 -4 244 -2 q 231 1 222 5 q 205 137 187 260 q 169 383 150 485 q 143 521 138 542 q 134 563 128 575 q 122 587 114 592 q 107 598 94 601 q 91 615 90 636 q 90 656 93 679 q 112 678 135 678 q 158 677 180 676 q 202 676 220 676 q 239 676 250 676 q 263 676 284 676 q 305 676 329 676 q 353 677 378 678 q 404 678 428 679 q 427 655 423 635 q 419 615 414 601 q 364 595 352 560 q 341 526 351 466 q 357 427 365 380 q 373 333 380 273 q 434 373 486 473 q 537 573 586 676 q 626 685 666 682 q 697 572 722 472 q 746 372 766 266 q 791 317 813 367 q 835 417 855 468 q 882 536 876 566 q 871 596 837 601 q 830 636 836 679 q 861 677 896 676 q 931 676 953 676 z"},"A":{"x_min":0,"x_max":710,"ha":710,"o":"m 153 152 q 136 124 142 102 q 149 80 181 75 q 183 57 184 38 q 184 18 179 -3 q 171 -2 156 -2 q 140 -1 122 0 q 104 0 86 0 q 68 0 56 0 q 31 0 6 0 q -20 -1 -36 -3 q -35 20 -32 38 q -29 56 -21 75 q -9 77 2 82 q 13 88 24 99 q 35 110 49 128 q 63 147 81 176 q 99 204 124 244 q 148 283 182 341 q 217 399 266 480 q 314 562 380 676 q 400 681 417 682 q 434 682 457 682 q 480 609 501 539 q 522 469 540 406 q 557 343 571 289 q 585 235 594 195 q 603 156 610 133 q 617 110 624 98 q 632 85 640 80 q 647 76 658 75 q 661 61 662 40 q 662 20 659 -3 q 644 -2 622 -2 q 600 -1 576 0 q 553 0 532 0 q 512 0 500 0 q 488 0 464 0 q 441 0 414 0 q 388 -1 363 -2 q 338 -2 323 -3 q 324 44 337 75 q 379 83 388 100 q 397 117 389 151 l 385 166 q 330 166 273 164 q 216 162 156 156 z m 369 231 q 361 261 353 292 q 345 322 336 352 q 330 372 326 398 q 321 425 318 454 q 304 425 291 400 q 278 374 268 354 q 251 323 234 292 q 217 262 200 231 z"},"f":{"x_min":0,"x_max":414,"ha":414,"o":"m 123 454 q 135 515 152 564 q 170 612 203 646 q 236 679 289 696 q 342 714 424 714 q 466 714 500 709 q 534 704 550 696 q 545 681 540 660 q 536 639 532 616 q 528 594 526 573 q 524 552 524 537 q 518 534 506 532 q 493 529 479 528 q 465 526 450 525 q 435 524 423 524 q 423 541 423 561 q 423 581 421 598 q 419 616 413 628 q 407 639 395 639 q 381 639 371 630 q 361 622 352 600 q 344 578 336 542 q 327 505 317 448 l 409 448 q 409 424 407 401 q 405 378 399 365 q 372 365 349 362 q 326 360 299 352 q 291 304 284 260 q 277 216 269 167 q 257 86 230 11 q 202 -64 162 -122 q 121 -179 68 -214 q 16 -248 -47 -248 q -79 -248 -106 -236 q -134 -225 -157 -199 q -157 -176 -151 -146 q -145 -116 -134 -95 q -110 -107 -83 -112 q -56 -117 -27 -117 q -3 -117 14 -112 q 30 -106 40 -90 q 51 -74 58 -44 q 64 -14 69 35 q 74 89 84 172 q 93 255 108 355 q 83 363 62 366 q 42 369 27 369 q 27 390 30 412 q 33 434 41 448 l 122 448 z"},"Q":{"x_min":0,"x_max":743,"ha":743,"o":"m 715 -79 q 726 -90 736 -109 q 746 -128 748 -145 q 679 -219 573 -219 q 515 -219 480 -192 q 446 -166 428 -109 q 413 -61 389 -38 q 365 -15 320 -9 q 242 -6 184 22 q 127 51 92 98 q 57 146 46 210 q 34 275 49 351 q 64 431 100 493 q 136 555 188 598 q 239 641 304 663 q 370 685 444 685 q 524 685 586 660 q 647 635 686 589 q 724 543 738 478 q 752 413 737 334 q 726 275 703 224 q 680 174 646 132 q 613 91 570 61 q 527 31 476 13 q 492 10 506 4 q 519 -1 534 -10 q 550 -20 568 -35 q 587 -50 612 -72 q 630 -88 642 -93 q 654 -98 668 -98 q 693 -98 715 -79 z m 254 355 q 242 295 241 243 q 240 191 251 152 q 262 113 286 91 q 310 69 348 69 q 381 69 410 90 q 438 110 462 147 q 486 184 504 236 q 523 289 535 353 q 545 407 543 454 q 541 500 528 535 q 516 570 492 590 q 468 610 434 610 q 370 610 324 542 q 277 473 254 355 z"},"w":{"x_min":0,"x_max":835,"ha":835,"o":"m 763 467 q 792 458 808 432 q 825 407 825 351 q 825 315 810 276 q 795 236 762 192 q 729 147 676 97 q 624 47 550 -9 q 527 -9 502 -4 q 476 0 460 11 q 452 61 444 102 q 435 142 419 188 q 400 132 356 83 q 312 34 246 -9 q 223 -9 196 -4 q 169 0 153 11 q 136 102 119 173 q 102 244 87 292 q 76 326 60 339 q 43 352 4 350 q 4 393 16 426 q 36 427 62 432 q 88 436 114 442 q 140 448 164 454 q 188 461 203 467 q 223 461 232 450 q 241 439 249 411 q 269 339 284 270 q 300 202 311 134 q 336 167 348 198 q 361 229 364 262 q 366 296 360 336 q 353 375 338 426 q 376 432 406 442 q 436 452 463 467 q 483 461 492 450 q 501 439 512 411 q 537 338 556 268 q 575 199 589 130 q 626 171 640 204 q 654 237 654 266 q 654 311 632 332 q 609 352 570 350 q 570 372 572 390 q 573 409 579 426 q 599 427 624 432 q 650 436 676 442 q 701 448 724 454 q 748 461 763 467 z"},"-":{"x_min":0,"x_max":328,"ha":328,"o":"m 317 326 q 316 297 312 274 q 307 252 296 229 q 246 229 180 228 q 114 228 27 226 q 31 261 36 284 q 42 307 52 326 z"},"E":{"x_min":0,"x_max":638,"ha":638,"o":"m 337 382 l 343 382 q 365 382 380 384 q 396 387 406 394 q 415 402 420 415 q 425 428 428 449 q 472 458 519 454 q 512 426 506 394 q 500 363 495 325 q 491 298 488 270 q 486 241 485 215 q 461 216 440 219 q 419 222 399 230 q 399 245 397 258 q 395 272 388 283 q 381 294 368 300 q 355 307 333 307 l 325 307 l 304 182 q 298 147 298 126 q 298 105 304 94 q 311 83 326 79 q 340 75 363 75 l 377 75 q 428 75 462 106 q 496 138 521 218 q 552 213 574 205 q 596 197 618 180 q 606 145 594 96 q 581 47 575 -3 q 552 -2 520 -2 q 488 -1 452 0 q 416 0 379 0 q 342 0 310 0 q 284 0 242 0 q 201 0 158 0 q 114 -1 74 -2 q 34 -2 10 -3 q 11 17 15 36 q 19 55 29 76 q 48 77 60 82 q 73 87 81 100 q 89 112 94 136 q 100 159 107 197 l 160 501 q 165 531 165 549 q 165 567 159 578 q 153 588 140 593 q 127 598 108 601 q 105 620 104 638 q 104 656 108 679 q 131 678 166 678 q 200 677 238 676 q 276 676 313 676 q 350 676 379 676 q 434 676 477 676 q 520 676 553 676 q 586 677 612 678 q 637 678 658 679 q 651 637 648 590 q 645 542 649 497 q 602 485 551 485 q 549 511 544 532 q 539 554 526 569 q 513 584 490 592 q 467 601 430 601 l 374 601 z"},"s":{"x_min":0,"x_max":458,"ha":458,"o":"m 178 69 q 195 69 204 76 q 213 82 215 93 q 219 110 206 126 q 192 141 170 158 q 149 174 124 192 q 98 211 77 234 q 56 257 45 286 q 34 315 41 352 q 48 387 68 410 q 89 432 120 444 q 152 457 194 462 q 235 467 284 467 q 308 467 332 464 q 357 461 381 456 q 405 451 426 444 q 447 438 463 430 q 445 372 444 291 q 421 280 394 278 q 368 275 342 278 q 340 329 324 362 q 307 395 273 395 q 259 395 249 390 q 239 385 236 368 q 232 347 246 329 q 259 311 282 294 q 304 277 331 258 q 358 240 380 218 q 401 196 413 168 q 425 140 418 103 q 412 69 395 48 q 378 26 348 14 q 318 1 274 -4 q 231 -9 171 -9 q 42 -9 -20 31 q 3 90 4 168 q 49 183 109 177 q 110 69 178 69 z"},">":{"x_min":0,"x_max":614,"ha":614,"o":"m 419 296 q 434 255 420 203 q 368 175 320 147 q 271 119 223 90 q 175 61 126 30 q 77 -1 24 -35 q 9 -17 5 4 q 1 26 6 49 l 351 255 l 68 523 q 83 537 106 544 q 128 552 152 551 z"},"l":{"x_min":0,"x_max":345,"ha":345,"o":"m 236 184 q 231 158 230 142 q 228 127 230 118 q 231 110 234 107 q 238 104 243 104 q 250 104 257 107 q 264 110 277 118 q 287 108 297 88 q 307 69 309 52 q 276 20 234 6 q 191 -9 146 -9 q 113 -9 91 -1 q 69 7 56 20 q 44 34 38 52 q 33 71 33 93 q 33 107 35 126 q 37 146 44 189 q 52 232 66 307 q 79 382 103 506 q 108 533 110 550 q 111 567 106 576 q 100 586 87 590 q 74 594 50 594 q 50 612 53 632 q 56 652 63 669 q 125 671 183 680 q 241 690 291 710 q 301 701 308 694 q 314 686 317 676 q 320 667 320 654 q 320 641 317 622 q 278 403 236 184 z"},"8":{"x_min":0,"x_max":545,"ha":545,"o":"m 547 492 q 531 410 416 364 q 481 315 501 263 q 521 211 508 142 q 502 109 482 82 q 462 54 428 34 q 395 14 349 2 q 303 -9 244 -9 q 113 -9 55 36 q -3 80 15 174 q 20 201 34 224 q 48 247 67 266 q 86 286 109 301 q 132 316 156 327 q 116 362 100 406 q 84 450 95 501 q 108 564 174 600 q 240 637 342 637 q 463 637 511 598 q 559 559 547 492 z m 279 526 q 272 494 284 468 q 296 442 336 415 q 369 446 376 491 q 383 526 371 548 q 359 569 332 569 q 311 569 297 556 q 283 543 279 526 z m 316 130 q 324 169 307 201 q 290 233 237 271 q 227 257 220 238 q 212 220 207 196 q 202 170 203 147 q 204 124 210 107 q 217 90 229 80 q 241 69 257 69 q 280 69 296 86 q 311 103 316 130 z"},"\\":{"x_min":0,"x_max":305,"ha":305,"o":"m 260 0 q 243 -8 219 -11 q 195 -14 172 -9 q 158 163 138 346 q 118 530 94 702 q 134 724 180 713 z"},"e":{"x_min":0,"x_max":500,"ha":500,"o":"m 313 467 q 405 467 449 430 q 493 393 483 336 q 478 310 458 283 q 437 256 402 232 q 368 209 320 192 q 271 176 209 173 q 212 138 230 118 q 248 98 289 98 q 322 98 351 108 q 380 118 401 129 q 412 110 416 91 q 420 72 418 47 q 395 31 372 20 q 350 10 325 4 q 300 -3 272 -6 q 243 -9 208 -9 q 140 -9 98 11 q 55 31 33 64 q 11 98 7 142 q 3 186 12 234 q 22 286 48 329 q 74 372 113 403 q 152 434 202 450 q 253 467 313 467 z m 214 250 q 273 255 310 278 q 347 300 353 333 q 365 395 311 395 q 282 395 256 366 q 231 337 218 271 z"},"b":{"x_min":0,"x_max":582,"ha":582,"o":"m 103 506 q 107 533 108 550 q 110 567 105 576 q 100 586 87 590 q 74 594 50 594 q 50 612 53 632 q 56 652 63 669 q 125 671 183 680 q 241 690 291 710 q 301 701 308 694 q 314 686 317 676 q 320 667 320 654 q 320 641 317 622 l 295 501 q 290 474 285 453 q 280 432 274 414 q 269 395 262 378 q 256 361 248 342 l 249 342 q 291 403 342 435 q 393 467 447 467 q 495 467 524 442 q 552 418 564 382 q 577 345 578 303 q 578 261 571 226 q 562 179 540 136 q 519 94 482 62 q 446 30 392 10 q 338 -9 265 -9 q 184 -9 116 14 q 48 38 6 80 q 19 101 30 131 q 42 161 52 217 z m 216 76 q 230 69 244 67 q 257 65 270 65 q 311 65 333 102 q 355 139 366 194 q 379 262 375 298 q 371 334 342 334 q 330 334 314 324 q 299 314 283 290 q 267 266 252 225 q 237 184 225 122 z"},"%":{"x_min":0,"x_max":730,"ha":730,"o":"m 617 685 q 640 676 655 658 q 670 640 675 617 q 624 556 580 504 q 537 451 497 402 q 457 354 420 308 q 382 262 342 212 q 303 163 260 109 q 216 55 166 -9 q 145 -2 128 18 q 110 38 107 59 z m 254 677 q 293 677 322 664 q 351 651 369 628 q 387 604 392 570 q 398 537 389 496 q 382 465 366 440 q 350 415 328 397 q 306 379 279 369 q 252 359 222 359 q 181 359 150 372 q 119 385 100 409 q 82 433 76 467 q 70 501 79 542 q 93 603 141 640 q 189 677 254 677 z m 242 601 q 221 601 205 585 q 189 569 184 543 q 175 494 187 464 q 199 435 228 435 q 248 435 264 451 q 279 467 284 493 q 293 542 282 572 q 271 601 242 601 z m 554 309 q 593 309 622 296 q 651 283 669 260 q 687 236 692 202 q 698 169 689 128 q 682 97 666 72 q 650 47 628 29 q 606 11 579 1 q 552 -9 522 -9 q 481 -9 450 4 q 419 17 400 41 q 382 65 376 99 q 370 133 379 174 q 393 235 441 272 q 489 309 554 309 z m 542 233 q 521 233 505 217 q 489 201 484 175 q 475 126 487 96 q 499 67 528 67 q 548 67 564 83 q 579 99 584 125 q 593 174 582 204 q 571 233 542 233 z"},"m":{"x_min":0,"x_max":971,"ha":971,"o":"m 70 262 q 75 289 76 306 q 78 324 73 334 q 68 343 55 347 q 42 351 18 351 q 18 369 21 389 q 24 409 31 426 q 93 428 151 438 q 209 447 259 467 q 279 456 286 440 q 293 423 290 402 q 286 372 278 344 q 269 315 252 278 l 253 278 l 269 311 q 285 345 310 374 q 335 402 364 423 q 394 444 428 456 q 461 467 494 467 q 545 467 566 441 q 586 415 586 370 q 586 319 572 278 l 573 278 l 585 305 q 602 345 628 374 q 653 404 683 424 q 713 443 745 452 q 777 461 808 461 q 847 461 870 448 q 892 434 901 408 q 910 382 908 344 q 906 307 896 258 l 880 184 q 869 133 870 118 q 870 104 881 104 q 888 104 895 107 q 902 110 915 118 q 925 108 935 88 q 945 69 947 52 q 914 20 872 6 q 829 -9 784 -9 q 741 -9 716 4 q 691 17 680 41 q 668 65 670 98 q 671 131 681 172 l 684 184 q 692 219 696 242 q 699 264 697 276 q 695 289 688 294 q 682 299 670 299 q 657 299 640 286 q 622 274 604 244 q 586 215 569 168 q 552 121 540 52 l 531 0 l 343 0 l 379 190 q 385 224 388 246 q 390 269 388 282 q 385 295 378 300 q 371 305 358 305 q 344 305 326 292 q 308 278 290 248 q 271 218 254 169 q 236 120 223 50 l 214 0 l 21 0 z"},"#":{"x_min":0,"x_max":580,"ha":580,"o":"m 443 263 l 552 263 q 552 240 548 222 q 544 205 534 188 l 427 188 l 386 -8 q 363 -8 344 -3 q 326 2 312 14 l 349 187 l 218 187 l 177 -8 q 128 -8 105 18 l 141 187 q 107 186 78 186 q 50 186 26 185 q 26 207 30 224 q 34 242 44 263 l 157 263 l 190 416 q 157 416 129 416 q 101 415 79 414 q 79 438 83 456 q 87 474 97 492 l 206 492 l 253 714 q 274 713 292 708 q 311 703 325 692 l 283 492 l 414 492 l 461 714 q 481 713 500 709 q 519 705 534 694 l 491 492 l 594 492 q 594 467 590 450 q 586 433 576 417 l 476 417 z m 267 417 l 234 263 l 365 263 l 398 417 z"},",":{"x_min":0,"x_max":271,"ha":271,"o":"m 174 185 q 193 177 204 150 q 215 123 204 65 q 190 -14 148 -78 q 105 -141 46 -184 q 1 -178 -16 -147 q 20 -113 42 -82 q 64 -50 68 -26 q 72 -1 56 16 q 41 33 3 38 q 3 99 34 148 q 74 150 111 160 q 148 170 174 185 z"},"n":{"x_min":0,"x_max":668,"ha":668,"o":"m 577 184 q 571 158 568 142 q 566 127 566 118 q 567 110 570 107 q 573 104 578 104 q 585 104 592 107 q 599 110 612 118 q 622 108 632 88 q 642 69 644 52 q 611 20 568 6 q 526 -9 481 -9 q 438 -9 413 4 q 388 17 377 41 q 366 65 368 98 q 369 131 378 172 l 382 190 q 390 225 392 248 q 394 270 391 282 q 388 295 380 300 q 372 305 361 305 q 346 305 327 292 q 308 278 290 248 q 271 218 254 169 q 236 120 223 50 l 214 0 l 21 0 l 70 262 q 75 289 76 306 q 78 324 73 334 q 68 343 55 347 q 42 351 18 351 q 18 369 21 389 q 24 409 31 426 q 93 428 151 438 q 209 447 259 467 q 279 456 286 440 q 293 423 290 402 q 285 370 276 342 q 267 313 250 275 l 251 275 l 269 311 q 285 344 310 372 q 335 401 366 422 q 397 443 432 455 q 467 467 505 467 q 536 467 560 458 q 583 449 596 426 q 608 402 608 361 q 609 320 594 257 z"},"h":{"x_min":0,"x_max":661,"ha":661,"o":"m 570 184 q 564 158 562 142 q 559 127 560 118 q 560 110 563 107 q 566 104 571 104 q 578 104 585 107 q 592 110 605 118 q 615 108 625 88 q 635 69 637 52 q 604 20 562 6 q 519 -9 474 -9 q 431 -9 406 4 q 381 17 370 41 q 359 65 360 98 q 362 131 371 172 l 375 190 q 383 225 385 248 q 387 270 384 282 q 381 295 373 300 q 365 305 354 305 q 339 305 320 292 q 301 278 282 248 q 263 218 246 170 q 228 121 216 51 l 207 0 l 14 0 l 103 506 q 107 533 108 550 q 110 567 105 576 q 100 586 87 590 q 74 594 50 594 q 50 612 53 632 q 56 652 63 669 q 125 671 183 680 q 241 690 291 710 q 301 701 308 694 q 314 686 317 676 q 320 667 320 654 q 320 641 317 622 q 302 541 291 485 q 280 429 272 389 q 263 349 256 320 q 248 291 239 265 l 240 265 l 262 311 q 278 344 302 372 q 327 401 358 422 q 389 443 424 455 q 460 467 498 467 q 529 467 552 458 q 576 449 588 426 q 601 402 602 361 q 602 320 587 257 z"},"z":{"x_min":0,"x_max":460,"ha":460,"o":"m 307 165 q 316 165 325 172 q 334 178 345 201 q 371 201 398 196 q 424 190 444 181 q 430 151 424 108 q 417 64 416 28 q 411 13 398 4 q 385 -4 368 -4 q 343 -4 323 -4 q 303 -3 284 -2 q 264 -1 244 0 q 223 0 198 0 q 163 0 136 0 q 108 0 85 0 q 62 -1 42 -2 q 22 -3 1 -4 q -10 10 -14 32 q -19 53 -15 73 q 70 131 136 184 q 202 237 254 288 q 240 291 228 292 q 215 293 205 293 q 179 293 163 280 q 147 267 136 241 q 108 241 78 248 q 47 256 30 270 q 54 317 68 362 q 83 406 91 454 q 117 461 165 464 q 213 467 279 467 q 336 467 372 464 q 409 462 441 457 q 463 424 463 386 q 418 331 362 275 q 305 219 242 167 q 247 168 252 168 q 258 168 265 168 q 274 168 284 166 q 293 165 307 165 z"},"B":{"x_min":0,"x_max":712,"ha":712,"o":"m 159 501 q 164 531 164 549 q 165 567 159 578 q 153 588 140 593 q 128 598 109 601 q 104 618 105 638 q 106 659 108 679 q 131 677 162 676 q 193 676 219 676 q 259 676 320 678 q 382 679 445 679 q 527 679 580 667 q 634 655 664 632 q 693 610 701 578 q 709 545 702 503 q 694 452 648 416 q 603 380 520 368 q 571 365 605 350 q 639 336 658 310 q 678 285 683 250 q 688 216 681 174 q 674 134 652 102 q 630 70 590 48 q 549 25 488 12 q 427 0 342 0 q 250 0 164 0 q 78 -1 9 -3 q 11 19 16 38 q 21 57 29 75 q 48 76 60 80 q 72 85 80 98 q 88 110 94 134 q 99 157 106 197 z m 371 389 q 420 389 457 422 q 494 455 505 516 q 512 558 491 580 q 470 601 431 601 q 413 601 400 596 q 387 592 373 586 l 339 389 z m 301 168 q 295 135 296 116 q 298 97 304 88 q 311 78 322 76 q 333 74 345 74 q 385 74 420 108 q 455 143 466 203 q 471 234 466 254 q 462 274 448 286 q 434 297 410 302 q 387 306 354 306 l 325 306 z"},"K":{"x_min":0,"x_max":789,"ha":789,"o":"m 494 516 q 521 539 536 554 q 550 569 554 578 q 559 587 554 592 q 549 597 536 601 q 533 618 533 638 q 533 659 535 679 q 564 677 600 676 q 635 676 661 676 q 677 676 697 676 q 717 676 736 676 q 756 677 772 678 q 789 678 798 679 q 798 660 795 640 q 792 621 784 600 q 763 598 748 595 q 732 592 715 584 q 698 575 678 560 q 657 544 627 519 l 474 392 q 516 351 550 300 q 583 249 612 182 q 626 147 640 134 q 653 122 672 122 q 685 122 698 125 q 711 128 721 134 q 732 123 741 104 q 750 84 752 67 q 717 30 671 10 q 625 -9 573 -9 q 508 -9 471 18 q 434 46 412 114 q 395 170 374 214 q 353 258 324 303 l 302 177 q 297 146 296 128 q 295 109 299 98 q 303 87 312 82 q 321 78 336 75 q 339 55 340 36 q 340 18 338 -3 q 317 -2 300 -2 q 282 -1 264 0 q 247 0 228 0 q 209 0 185 0 q 130 0 88 0 q 45 -1 10 -3 q 12 19 16 37 q 21 55 29 75 q 51 76 64 82 q 76 89 84 103 q 91 117 96 140 q 100 162 106 197 l 158 501 q 163 530 164 548 q 165 567 160 578 q 155 588 142 593 q 130 598 109 601 q 106 618 106 638 q 105 659 108 679 q 145 677 186 676 q 228 676 276 676 q 315 676 359 676 q 403 677 448 679 q 448 639 434 601 q 413 599 401 594 q 389 589 381 576 q 373 564 368 542 q 362 519 355 481 l 338 382 z"},"R":{"x_min":0,"x_max":766,"ha":766,"o":"m 158 501 q 163 530 164 548 q 165 567 160 578 q 155 588 142 593 q 130 598 109 601 q 106 618 106 638 q 105 659 108 679 q 145 677 190 676 q 235 676 283 676 q 312 676 368 678 q 425 681 487 681 q 553 681 600 664 q 646 647 673 618 q 700 590 710 552 q 719 515 712 473 q 706 435 688 403 q 669 371 642 346 q 616 322 582 305 q 549 288 513 280 q 537 265 557 238 q 577 210 596 165 q 607 136 619 127 q 631 118 648 118 q 661 118 672 122 q 683 126 691 131 q 702 120 712 101 q 722 82 724 65 q 689 28 640 10 q 591 -9 539 -9 q 509 -9 487 -2 q 465 6 447 24 q 429 41 414 70 q 400 98 386 141 q 370 187 358 212 q 346 238 329 259 l 316 259 l 302 177 q 297 146 296 128 q 294 109 297 98 q 300 87 308 82 q 317 78 332 75 q 335 55 336 36 q 336 18 334 -3 q 313 -2 296 -2 q 279 -1 262 0 q 246 0 228 0 q 209 0 185 0 q 130 0 88 0 q 45 -1 10 -3 q 12 19 16 37 q 21 55 29 75 q 47 76 59 81 q 71 86 79 99 q 87 112 94 136 q 100 159 106 197 z m 332 348 q 338 347 344 347 q 349 347 354 347 q 377 347 400 356 q 424 365 444 383 q 465 401 480 428 q 495 454 501 489 q 512 546 491 574 q 470 603 426 603 q 412 603 400 600 q 387 597 374 592 z"},"T":{"x_min":0,"x_max":641,"ha":641,"o":"m 290 601 q 250 601 216 569 q 181 537 157 472 q 128 472 105 476 q 82 481 62 493 q 69 511 76 534 q 83 558 89 583 q 95 608 100 633 q 104 658 106 679 q 136 678 166 678 q 195 677 228 676 q 261 676 301 676 q 341 676 393 676 q 441 676 478 676 q 514 676 547 676 q 580 677 612 678 q 645 678 683 679 q 678 637 676 584 q 675 531 680 483 q 658 476 632 474 q 607 471 580 473 q 575 544 554 572 q 534 601 492 601 l 491 601 l 419 187 q 414 157 414 138 q 413 118 421 106 q 429 93 448 86 q 467 80 500 75 q 504 56 504 36 q 505 15 503 -3 q 470 -1 419 0 q 368 0 307 0 q 240 0 183 0 q 126 -1 85 -3 q 87 19 92 40 q 97 60 103 75 q 136 79 156 84 q 176 90 188 103 q 201 116 208 138 q 215 160 221 197 l 291 601 z"},"P":{"x_min":0,"x_max":664,"ha":664,"o":"m 160 501 q 165 531 166 549 q 166 567 160 578 q 154 588 142 593 q 129 598 110 601 q 107 617 106 638 q 106 658 108 679 q 154 677 196 676 q 239 676 281 676 q 329 676 380 678 q 431 679 499 679 q 611 679 659 613 q 707 547 687 428 q 679 381 656 342 q 632 303 596 274 q 559 246 510 230 q 460 215 399 215 q 385 215 372 217 q 360 219 350 224 q 350 231 350 241 q 351 251 353 261 q 355 271 358 280 q 360 290 363 297 q 365 296 368 296 q 372 295 380 295 q 397 295 416 304 q 434 313 450 330 q 466 347 478 373 q 491 399 497 432 q 511 507 490 554 q 470 601 415 601 q 394 601 375 593 l 305 187 q 299 155 299 135 q 299 115 308 103 q 317 91 336 85 q 355 79 387 75 q 391 56 391 36 q 391 17 389 -3 q 347 -1 300 0 q 253 0 208 0 q 151 0 102 0 q 54 -1 12 -3 q 14 15 18 36 q 22 56 30 76 q 49 77 61 82 q 73 87 81 100 q 89 112 94 136 q 100 159 107 197 z"},"|":{"x_min":0,"x_max":210,"ha":210,"o":"m 162 716 q 186 716 206 713 q 227 710 248 701 q 199 465 154 228 q 109 -8 66 -250 q 43 -250 20 -246 q -2 -242 -21 -231 z"},"t":{"x_min":0,"x_max":381,"ha":381,"o":"m 254 243 q 244 199 241 172 q 238 146 241 131 q 244 116 252 111 q 260 106 271 106 q 282 106 294 111 q 306 116 317 127 q 327 113 334 92 q 341 72 343 53 q 331 39 312 28 q 293 17 270 8 q 247 0 223 -4 q 199 -9 177 -9 q 130 -9 100 8 q 71 26 56 58 q 42 90 42 134 q 43 178 56 231 l 87 359 q 47 369 18 369 q 18 390 21 412 q 24 434 32 448 l 109 448 l 111 458 q 122 503 126 532 q 131 561 133 582 q 174 586 216 596 q 257 607 283 620 q 302 615 310 600 q 319 586 320 564 q 321 543 316 516 q 311 488 304 458 l 302 448 l 390 448 q 390 424 388 401 q 386 378 380 365 q 353 365 330 362 q 306 360 279 352 z"},"M":{"x_min":0,"x_max":975,"ha":975,"o":"m 894 475 q 890 406 886 338 q 883 270 877 201 q 874 165 874 142 q 873 118 878 104 q 883 90 894 84 q 904 77 923 75 q 927 58 927 38 q 927 17 924 -3 q 887 -1 846 0 q 804 0 751 0 q 712 0 666 0 q 619 -1 574 -3 q 574 16 577 36 q 580 55 588 75 q 614 78 630 84 q 645 91 654 106 q 663 121 668 146 q 672 171 676 210 q 684 276 688 342 q 692 408 696 475 q 633 354 566 234 q 500 115 428 -3 q 405 -8 387 -8 q 369 -9 352 -9 q 323 117 290 240 q 258 363 220 484 q 212 450 204 414 q 195 378 186 344 q 178 309 170 277 q 161 245 154 218 q 144 180 140 155 q 136 130 140 114 q 143 98 155 89 q 167 80 190 75 q 193 57 193 37 q 193 17 191 -3 q 171 -1 144 0 q 117 0 88 0 q 53 0 20 0 q -14 -1 -36 -3 q -36 17 -32 38 q -29 58 -21 75 q -5 80 6 88 q 18 97 28 113 q 39 129 49 154 q 59 178 71 216 q 84 258 96 296 q 107 333 116 368 q 126 404 134 440 q 143 475 152 514 q 158 540 159 556 q 160 572 156 581 q 151 590 139 594 q 127 598 107 601 q 103 618 103 638 q 103 659 106 679 q 119 678 138 678 q 157 677 176 676 q 195 676 212 676 q 229 676 240 676 q 267 676 305 676 q 343 677 380 679 q 411 575 438 471 q 466 367 489 261 q 551 365 608 469 q 664 573 718 679 q 760 677 798 676 q 836 676 857 676 q 884 676 912 676 q 939 677 976 679 q 976 638 963 601 q 943 597 930 590 q 918 582 910 568 q 903 553 900 530 q 896 508 894 475 z"},"g":{"x_min":0,"x_max":571,"ha":571,"o":"m 333 116 q 291 55 240 23 q 189 -9 135 -9 q 87 -9 58 16 q 30 40 18 76 q 5 113 4 155 q 4 197 11 232 q 20 278 41 320 q 62 363 98 396 q 135 428 188 448 q 242 467 314 467 q 350 467 379 462 q 408 458 431 450 q 496 456 528 467 q 549 450 554 431 q 560 412 555 381 l 490 11 q 466 -123 382 -186 q 297 -250 165 -250 q 108 -250 62 -243 q 15 -236 -16 -222 q -11 -207 -6 -187 q -2 -167 2 -146 q 5 -125 7 -106 q 9 -86 9 -71 q 15 -68 28 -66 q 40 -63 54 -62 q 68 -60 83 -59 q 98 -58 110 -58 q 113 -174 180 -174 q 224 -174 249 -144 q 274 -114 285 -51 l 291 -19 q 294 0 298 16 q 302 32 306 47 q 311 62 318 78 q 325 95 334 116 z m 368 382 q 357 387 338 390 q 319 393 307 393 q 288 393 274 383 q 259 373 248 356 q 237 339 230 315 q 222 291 216 264 q 203 196 207 160 q 211 124 240 124 q 252 124 268 134 q 283 144 299 168 q 315 192 330 233 q 345 274 357 336 z"},"j":{"x_min":0,"x_max":309,"ha":309,"o":"m 247 685 q 290 685 316 658 q 341 632 333 587 q 319 505 208 505 q 163 505 140 531 q 116 557 122 601 q 128 642 160 664 q 193 685 247 685 z m 81 263 q 85 290 86 307 q 88 324 83 334 q 78 343 65 347 q 52 351 28 351 q 28 369 31 389 q 34 409 41 426 q 103 428 161 438 q 219 447 269 467 q 279 458 286 450 q 292 443 295 434 q 298 424 298 411 q 298 398 295 379 l 250 125 q 235 40 210 -20 q 186 -80 148 -122 q 111 -164 58 -193 q 5 -222 -67 -246 q -98 -219 -98 -167 q -72 -154 -50 -135 q -27 -116 -8 -90 q 10 -64 24 -29 q 37 6 45 52 z"},"i":{"x_min":0,"x_max":339,"ha":339,"o":"m 315 587 q 301 505 190 505 q 145 505 122 531 q 98 557 104 601 q 110 642 142 664 q 175 685 229 685 q 272 685 298 658 q 323 632 315 587 z m 70 262 q 76 289 78 306 q 79 324 74 334 q 68 343 55 347 q 42 351 18 351 q 18 369 21 389 q 24 409 31 426 q 152 429 249 467 q 271 455 282 434 q 292 413 284 371 l 248 184 q 238 133 239 118 q 240 104 251 104 q 257 104 264 107 q 272 110 283 118 q 293 108 303 88 q 313 69 315 52 q 282 20 240 6 q 197 -9 152 -9 q 109 -9 85 4 q 61 17 50 41 q 40 65 41 98 q 42 131 51 172 z"},"y":{"x_min":0,"x_max":588,"ha":588,"o":"m 215 467 q 235 461 244 450 q 253 439 261 411 q 283 335 296 260 q 309 186 317 112 q 342 146 358 170 q 374 195 382 214 q 391 234 394 250 q 397 266 397 281 q 397 315 376 334 q 355 352 316 350 q 316 393 328 426 q 348 427 374 432 q 400 436 426 442 q 452 448 476 454 q 500 461 515 467 q 571 449 571 375 q 571 353 565 329 q 559 305 538 269 q 517 233 476 179 q 434 125 362 43 q 281 -51 227 -108 q 173 -166 134 -197 q 95 -228 64 -238 q 34 -248 -1 -248 q -37 -248 -66 -236 q -94 -225 -117 -199 q -117 -176 -111 -146 q -105 -116 -94 -95 q -70 -107 -43 -112 q -16 -117 13 -117 q 38 -117 58 -114 q 79 -112 98 -106 q 117 -99 136 -87 q 154 -75 174 -57 q 167 -6 160 39 q 152 84 143 126 q 134 168 123 209 q 112 250 99 292 q 88 326 72 339 q 55 352 16 350 q 16 393 28 426 q 48 427 74 432 q 100 436 126 442 q 152 448 176 454 q 200 461 215 467 z"},"@":{"x_min":0,"x_max":892,"ha":892,"o":"m 500 110 q 459 52 409 22 q 359 -9 306 -9 q 258 -9 230 16 q 201 40 188 76 q 176 113 176 155 q 175 197 182 232 q 191 278 212 320 q 233 363 270 396 q 306 428 360 448 q 413 467 485 467 q 520 467 548 462 q 577 458 600 450 q 629 453 656 457 q 683 461 709 467 q 730 450 736 430 q 742 410 735 379 l 690 184 q 684 158 682 142 q 680 127 682 118 q 683 110 687 107 q 691 104 696 104 q 722 104 746 145 q 770 186 786 263 q 813 419 740 502 q 667 586 503 586 q 431 586 368 564 q 305 542 256 501 q 207 460 174 402 q 141 344 129 272 q 96 81 180 -22 q 264 -124 453 -124 q 525 -124 594 -100 q 663 -75 720 -35 q 736 -41 746 -55 q 755 -69 758 -83 q 701 -137 619 -170 q 537 -202 436 -202 q 327 -202 243 -171 q 159 -140 106 -80 q 52 -21 32 66 q 12 152 32 264 q 48 353 92 426 q 135 499 200 551 q 265 603 349 632 q 433 660 529 660 q 628 660 700 634 q 773 609 818 561 q 862 513 877 443 q 892 373 877 284 q 866 224 840 170 q 814 117 777 78 q 740 38 695 14 q 650 -9 601 -9 q 569 -9 548 0 q 527 10 516 26 q 504 43 501 64 q 498 86 501 110 z m 539 382 q 527 387 508 390 q 490 393 478 393 q 459 393 444 383 q 430 373 419 356 q 408 339 400 315 q 393 291 387 264 q 374 196 378 160 q 382 124 411 124 q 423 124 438 134 q 454 144 470 168 q 486 192 501 233 q 516 274 528 336 z"},".":{"x_min":0,"x_max":289,"ha":289,"o":"m 224 75 q 216 36 190 14 q 164 -9 116 -9 q 60 -9 30 22 q 1 54 13 114 q 21 154 49 176 q 77 197 128 197 q 149 197 169 189 q 189 181 203 166 q 217 150 224 128 q 230 105 224 75 z"},"p":{"x_min":0,"x_max":588,"ha":588,"o":"m 242 323 q 285 393 340 430 q 395 467 453 467 q 501 467 530 442 q 558 418 570 382 q 583 345 584 303 q 584 261 577 226 q 568 180 547 138 q 526 95 490 62 q 453 30 400 10 q 346 -9 274 -9 q 255 -9 238 -8 q 222 -6 207 -4 q 209 -24 207 -49 q 205 -74 199 -110 l 175 -243 l -18 -243 l 71 263 q 75 290 76 307 q 78 324 73 334 q 68 343 55 347 q 42 351 18 351 q 18 369 21 389 q 24 409 31 426 q 93 428 144 438 q 194 447 244 467 q 264 449 269 430 q 274 412 270 392 q 267 376 260 360 q 253 344 241 323 z m 220 76 q 232 71 250 68 q 269 65 281 65 q 318 65 340 102 q 361 139 372 194 q 385 262 381 298 q 377 334 348 334 q 336 334 320 324 q 305 314 289 290 q 273 266 258 225 q 243 184 231 122 z"},"X":{"x_min":0,"x_max":684,"ha":684,"o":"m 301 256 q 284 234 265 211 q 246 188 226 165 q 191 126 189 103 q 187 80 210 75 q 217 40 211 -3 q 186 -1 151 0 q 116 0 94 0 q 66 0 31 0 q -4 -1 -36 -3 q -34 39 -22 75 q 2 78 22 84 q 41 91 58 100 q 74 110 90 124 q 105 138 122 158 q 163 204 202 251 q 240 298 266 336 q 248 376 227 420 q 206 464 183 508 q 169 535 159 552 q 149 568 139 578 q 129 588 119 593 q 109 598 95 601 q 92 615 92 636 q 91 656 94 679 q 113 678 138 678 q 162 677 186 676 q 209 676 229 676 q 249 676 260 676 q 273 676 294 676 q 315 676 339 676 q 363 677 388 678 q 414 678 438 679 q 437 655 433 635 q 429 615 424 601 q 403 598 391 592 q 379 587 376 576 q 374 564 380 546 q 385 527 399 498 q 407 480 416 461 q 424 442 432 423 q 448 442 464 462 q 479 481 493 498 q 517 528 527 547 q 537 566 538 577 q 538 588 530 594 q 523 599 512 601 q 505 636 511 679 q 536 677 571 676 q 606 676 628 676 q 656 676 684 676 q 712 677 744 679 q 742 637 730 601 q 713 598 699 594 q 685 589 672 580 q 658 572 644 558 q 630 543 612 520 q 567 462 533 420 q 499 378 467 343 q 483 305 496 272 q 510 239 520 215 q 537 173 550 148 q 562 122 574 108 q 586 93 600 86 q 613 79 632 75 q 635 61 636 40 q 636 20 633 -3 q 614 -2 590 -2 q 565 -1 542 0 q 518 0 498 0 q 477 0 467 0 q 453 0 432 0 q 412 0 388 0 q 364 -1 338 -2 q 313 -2 289 -3 q 290 21 294 41 q 298 61 303 75 q 340 79 345 102 q 350 124 328 183 z"},"*":{"x_min":0,"x_max":505,"ha":505,"o":"m 410 652 q 389 622 370 589 q 351 556 335 523 q 375 535 410 548 q 445 562 478 578 q 498 543 501 508 q 504 473 493 430 q 450 443 416 451 q 381 459 339 465 q 365 433 389 406 q 413 380 444 350 q 420 322 384 306 q 349 289 305 290 q 304 332 300 367 q 297 402 289 444 q 266 412 247 383 q 228 354 206 315 q 133 341 118 422 q 156 437 188 452 q 219 467 253 486 q 218 499 186 507 q 153 515 109 523 q 113 560 130 591 q 148 622 179 641 q 204 608 226 584 q 248 560 281 530 q 281 569 279 604 q 277 640 272 682 q 312 687 348 680 q 384 672 410 652 z"},"Y":{"x_min":0,"x_max":606,"ha":606,"o":"m 238 292 q 230 318 222 342 q 215 365 206 390 q 197 415 187 442 q 177 468 165 500 q 153 531 144 550 q 136 568 128 578 q 120 589 112 594 q 104 598 94 601 q 91 615 90 636 q 90 656 93 679 q 112 678 135 678 q 158 677 180 676 q 202 676 220 676 q 239 676 250 676 q 263 676 284 676 q 305 676 329 676 q 353 677 378 678 q 404 678 428 679 q 427 655 423 635 q 419 615 414 601 q 371 596 362 576 q 354 556 367 521 q 378 492 390 454 q 401 417 411 375 q 436 415 456 451 q 476 487 494 526 q 511 561 505 578 q 499 596 465 601 q 458 636 464 679 q 489 677 524 676 q 559 676 581 676 q 609 676 630 676 q 652 677 684 679 q 682 637 670 601 q 662 599 655 596 q 648 593 639 584 q 630 574 618 556 q 605 539 586 508 q 544 441 508 386 q 471 331 436 279 l 420 187 q 415 157 414 138 q 414 118 422 106 q 430 93 449 86 q 468 80 501 75 q 505 56 506 36 q 506 15 504 -3 q 471 -1 420 0 q 369 0 308 0 q 241 0 184 0 q 127 -1 86 -3 q 88 19 93 40 q 98 60 104 75 q 137 79 157 84 q 177 90 190 103 q 202 116 209 138 q 216 160 222 197 z"},"c":{"x_min":0,"x_max":451,"ha":451,"o":"m 313 467 q 355 467 392 456 q 430 446 452 431 q 432 373 432 322 q 391 307 345 316 q 347 348 338 370 q 330 391 303 391 q 278 391 254 364 q 230 337 218 271 q 210 235 208 203 q 207 171 214 148 q 221 125 239 112 q 257 98 289 98 q 322 98 351 108 q 380 118 401 129 q 412 110 416 91 q 420 72 418 47 q 395 31 372 20 q 350 10 325 4 q 300 -3 272 -6 q 243 -9 208 -9 q 140 -9 98 11 q 55 31 33 64 q 11 98 7 142 q 3 186 12 234 q 19 271 38 312 q 56 353 91 388 q 126 422 180 444 q 234 467 313 467 z"},"!":{"x_min":0,"x_max":357,"ha":357,"o":"m 339 623 q 329 593 316 549 q 304 505 290 454 q 275 404 261 350 q 247 296 234 245 q 207 243 180 246 q 153 248 133 258 q 143 364 148 468 q 152 572 152 675 q 194 680 238 690 q 283 701 318 717 q 341 710 348 690 q 354 669 339 623 z m 262 75 q 254 36 228 14 q 202 -9 154 -9 q 98 -9 68 22 q 39 54 51 114 q 59 154 87 176 q 115 197 166 197 q 187 197 207 189 q 227 181 241 166 q 255 150 262 128 q 268 105 262 75 z"},"/":{"x_min":0,"x_max":302,"ha":302,"o":"m 301 717 q 350 716 381 687 q 345 615 316 556 q 287 498 262 446 q 236 393 212 343 q 189 293 164 240 q 139 186 112 126 q 84 65 51 -9 q 26 -6 6 4 q -14 14 -28 31 z"},"[":{"x_min":0,"x_max":328,"ha":328,"o":"m 140 742 q 249 737 357 742 q 363 723 362 702 q 361 681 355 659 q 322 656 301 652 q 280 648 268 639 q 255 630 248 614 q 242 599 238 575 l 119 -96 q 114 -122 115 -138 q 116 -155 124 -164 q 132 -174 150 -178 q 167 -183 196 -184 q 203 -225 189 -268 q 168 -267 139 -266 q 110 -266 79 -266 q 48 -266 18 -266 q -13 -267 -38 -268 z"},"6":{"x_min":0,"x_max":563,"ha":563,"o":"m 515 638 q 531 614 517 565 q 417 545 348 496 q 279 447 244 374 q 279 385 308 390 q 337 395 369 395 q 415 395 450 380 q 486 366 508 339 q 529 312 536 274 q 544 237 535 191 q 516 94 442 42 q 367 -9 246 -9 q 114 -9 59 68 q 4 146 33 291 q 64 447 188 537 q 313 627 515 638 z m 219 294 q 199 188 209 132 q 219 75 256 75 q 288 75 309 100 q 330 124 339 169 q 352 235 333 274 q 314 314 270 314 q 244 314 222 307 z"},"r":{"x_min":0,"x_max":498,"ha":498,"o":"m 70 262 q 75 289 76 306 q 78 324 73 334 q 68 343 55 347 q 42 351 18 351 q 18 369 21 389 q 24 409 31 426 q 93 428 151 438 q 209 447 259 467 q 297 447 288 392 q 283 358 271 320 q 259 281 243 246 l 244 246 l 273 311 q 288 344 310 372 q 331 401 357 422 q 383 443 412 455 q 442 467 473 467 q 504 467 527 455 q 511 411 501 354 q 491 298 490 249 q 467 238 438 234 q 410 230 382 232 q 386 249 376 262 q 366 275 352 275 q 339 275 322 266 q 304 256 284 227 q 267 201 251 158 q 235 116 223 50 l 214 0 l 21 0 z"},"2":{"x_min":0,"x_max":486,"ha":486,"o":"m 464 376 q 461 357 452 341 q 443 325 426 309 q 409 293 382 276 q 356 259 319 238 q 283 218 252 198 q 222 179 193 157 q 207 159 218 159 q 230 159 242 159 q 262 159 278 158 q 295 156 306 156 q 323 156 332 168 q 340 179 348 211 q 369 215 397 211 q 425 207 443 198 q 433 160 429 116 q 425 71 428 38 q 421 19 405 8 q 389 -3 368 -3 q 342 -3 307 -2 q 272 0 220 0 q 174 0 122 0 q 69 -1 18 -3 q 8 14 4 41 q -1 68 1 92 q 16 110 36 128 q 55 147 75 164 q 95 182 116 198 q 136 214 153 226 q 209 266 236 296 q 263 327 269 358 q 276 394 262 414 q 249 433 221 433 q 209 433 200 427 q 192 421 185 406 q 178 391 171 366 q 164 341 156 304 q 127 304 99 309 q 71 314 51 323 q 61 354 66 390 q 70 426 70 458 q 115 484 168 496 q 222 509 288 509 q 379 509 427 472 q 475 436 464 376 z"},"{":{"x_min":0,"x_max":384,"ha":384,"o":"m 431 754 q 442 743 446 722 q 449 700 445 682 q 399 671 376 648 q 352 625 342 594 q 332 564 332 528 q 331 493 330 457 q 330 421 326 387 q 323 353 306 326 q 290 299 257 281 q 224 263 165 259 q 219 247 244 224 q 270 200 277 168 q 284 136 276 99 q 269 62 257 24 q 245 -15 234 -52 q 222 -89 220 -121 q 219 -153 232 -177 q 246 -201 284 -213 q 286 -232 280 -250 q 274 -269 260 -283 q 184 -269 144 -244 q 104 -219 88 -186 q 71 -154 72 -116 q 74 -77 82 -38 q 91 2 100 42 q 110 81 108 116 q 107 151 90 180 q 73 209 28 227 q 27 242 31 260 q 35 277 44 289 q 93 300 118 324 q 143 347 154 378 q 164 409 166 446 q 168 482 172 520 q 175 557 185 594 q 195 630 222 662 q 250 693 300 717 q 349 741 431 754 z"},"9":{"x_min":0,"x_max":559,"ha":559,"o":"m 331 506 q 389 506 434 488 q 478 469 506 432 q 533 396 542 342 q 550 288 536 216 q 519 132 476 64 q 432 -4 364 -53 q 297 -102 208 -132 q 119 -162 13 -169 q 6 -158 5 -138 q 4 -119 11 -96 q 74 -83 122 -62 q 171 -42 207 -15 q 243 12 268 44 q 294 77 311 113 q 286 103 256 98 q 227 92 196 92 q 105 92 61 150 q 17 207 37 313 q 54 401 128 454 q 203 506 331 506 z m 351 238 q 360 289 361 324 q 362 359 356 380 q 350 402 338 412 q 326 422 310 422 q 279 422 258 396 q 238 369 230 331 q 224 298 224 270 q 224 241 232 220 q 240 198 256 186 q 271 173 297 173 q 319 173 337 180 q 342 194 345 209 q 348 224 351 238 z"}," ":{"x_min":0,"x_max":200,"ha":200,"o":""},"I":{"x_min":0,"x_max":414,"ha":414,"o":"m 158 501 q 163 530 164 548 q 165 567 160 578 q 155 588 142 593 q 130 598 109 601 q 106 618 106 638 q 105 659 108 679 q 145 677 186 676 q 228 676 276 676 q 315 676 359 676 q 403 677 448 679 q 448 639 434 601 q 413 599 401 594 q 389 589 381 576 q 373 564 368 542 q 362 519 355 481 l 303 180 q 297 148 296 129 q 296 110 300 99 q 305 88 316 83 q 328 78 346 75 q 349 55 350 36 q 350 18 348 -3 q 305 -1 270 0 q 234 0 185 0 q 130 0 88 0 q 45 -1 10 -3 q 12 19 16 37 q 21 55 29 75 q 47 78 59 82 q 71 87 79 98 q 87 108 92 126 q 97 145 103 177 z"},"H":{"x_min":0,"x_max":810,"ha":810,"o":"m 554 501 q 559 530 560 548 q 561 567 556 578 q 551 588 538 593 q 526 598 505 601 q 502 618 502 638 q 501 659 504 679 q 541 677 582 676 q 624 676 672 676 q 711 676 755 676 q 799 677 844 679 q 844 639 830 601 q 809 599 797 594 q 785 589 777 576 q 769 564 764 542 q 758 519 751 481 l 699 180 q 693 148 692 129 q 692 110 696 99 q 701 88 712 83 q 724 78 742 75 q 745 55 746 36 q 746 18 744 -3 q 701 -1 666 0 q 630 0 581 0 q 526 0 484 0 q 441 -1 406 -3 q 408 19 412 37 q 417 55 425 75 q 443 78 455 82 q 467 87 475 98 q 483 108 488 126 q 493 145 499 177 l 519 296 q 470 295 420 294 q 369 293 322 290 l 303 180 q 297 148 296 129 q 296 110 300 99 q 305 88 316 83 q 328 78 346 75 q 349 55 350 36 q 350 18 348 -3 q 305 -1 270 0 q 234 0 185 0 q 130 0 88 0 q 45 -1 10 -3 q 12 19 16 37 q 21 55 29 75 q 47 78 59 82 q 71 87 79 98 q 87 108 92 126 q 97 145 103 177 l 158 501 q 163 530 164 548 q 165 567 160 578 q 155 588 142 593 q 130 598 109 601 q 106 618 106 638 q 105 659 108 679 q 145 677 186 676 q 228 676 276 676 q 315 676 359 676 q 403 677 448 679 q 448 639 434 601 q 413 599 401 594 q 389 589 381 576 q 373 564 368 542 q 362 519 355 481 l 337 377 l 533 377 z"},"4":{"x_min":0,"x_max":565,"ha":565,"o":"m 484 149 q 517 149 528 116 q 517 93 508 64 q 500 34 493 0 l 418 0 l 389 -153 q 342 -148 304 -152 q 265 -157 230 -171 q 196 -154 203 -116 l 225 -1 q 156 -2 102 -2 q 49 -3 12 -5 q 0 18 -6 46 q -11 74 -9 102 q 94 203 194 305 q 295 407 393 511 q 465 511 512 489 l 447 149 z m 260 177 q 270 225 277 254 q 284 284 292 307 q 277 287 260 268 q 244 249 224 229 q 204 209 182 189 q 160 169 138 149 l 255 149 z"},"~":{"x_min":0,"x_max":591,"ha":591,"o":"m 215 374 q 248 374 274 361 q 300 348 324 332 q 347 317 369 304 q 391 291 417 291 q 445 291 470 306 q 496 321 527 359 q 547 350 561 332 q 575 313 578 292 q 533 230 492 201 q 451 172 409 172 q 374 172 348 186 q 322 199 300 216 q 277 232 254 246 q 231 259 202 259 q 137 259 78 183 q 58 190 44 206 q 31 221 28 244 q 58 283 85 308 q 112 334 136 348 q 159 363 179 368 q 199 374 215 374 z"},"D":{"x_min":0,"x_max":733,"ha":733,"o":"m 157 501 q 162 531 162 550 q 163 568 158 578 q 152 589 140 594 q 127 599 108 601 q 104 621 104 642 q 104 664 108 679 q 125 678 148 678 q 172 677 199 676 q 226 676 254 676 q 283 676 310 676 q 333 676 360 677 q 387 678 420 678 q 495 678 559 664 q 623 650 667 612 q 711 574 728 508 q 746 441 728 335 q 714 257 684 202 q 655 146 616 108 q 578 71 534 50 q 491 28 449 17 q 407 6 370 3 q 333 0 308 0 l 306 0 q 279 0 237 0 q 195 0 151 0 q 107 -1 68 -2 q 30 -2 10 -3 q 11 17 15 36 q 19 55 28 75 q 47 76 60 81 q 72 86 80 99 q 88 112 94 136 q 99 159 105 197 z m 301 182 q 295 147 294 126 q 294 105 300 94 q 307 83 320 79 q 334 75 357 75 q 369 75 391 84 q 413 93 438 122 q 464 151 488 207 q 513 263 530 357 q 543 433 539 481 q 535 529 519 556 q 503 583 478 593 q 452 603 423 603 q 409 603 396 600 q 383 598 369 591 z"},"^":{"x_min":0,"x_max":500,"ha":500,"o":"m 331 692 q 346 699 368 700 q 391 701 408 696 q 419 665 433 628 q 447 590 462 552 q 478 513 493 476 q 508 438 522 407 q 516 403 506 400 q 497 397 486 395 q 474 393 463 392 q 452 392 443 394 l 358 613 q 307 554 258 494 q 208 434 168 383 q 145 385 130 397 q 114 409 107 428 z"},"0":{"x_min":0,"x_max":571,"ha":571,"o":"m 323 509 q 392 509 441 488 q 490 467 520 428 q 549 389 558 334 q 566 280 553 214 q 533 106 458 48 q 384 -9 266 -9 q 195 -9 144 13 q 94 35 64 75 q 34 115 25 171 q 16 227 29 296 q 49 399 125 454 q 201 509 323 509 z m 298 430 q 272 430 250 400 q 229 371 221 322 q 211 265 210 218 q 210 172 218 138 q 225 105 240 87 q 256 69 279 69 q 305 69 326 97 q 348 125 357 172 q 368 230 369 278 q 370 325 362 359 q 355 393 338 412 q 322 430 298 430 z"},"F":{"x_min":0,"x_max":606,"ha":606,"o":"m 159 501 q 164 531 164 549 q 165 567 159 578 q 153 588 140 593 q 128 598 109 601 q 106 618 106 638 q 106 658 108 679 q 141 678 178 678 q 214 677 250 676 q 286 676 319 676 q 352 676 378 676 q 433 676 476 676 q 519 676 552 676 q 585 677 610 678 q 636 678 657 679 q 650 637 647 590 q 644 542 648 497 q 601 485 550 485 q 548 511 543 532 q 538 554 525 569 q 512 584 489 592 q 466 601 429 601 l 373 601 l 329 339 l 345 339 q 367 339 382 342 q 398 344 408 352 q 417 359 422 372 q 427 385 430 406 q 474 415 521 411 q 514 383 508 352 q 502 320 497 282 q 493 255 490 224 q 488 194 487 168 q 463 169 442 172 q 421 175 401 183 q 402 220 390 242 q 379 264 335 264 l 317 264 l 304 187 q 298 155 298 136 q 297 116 305 104 q 313 92 332 86 q 352 80 386 75 q 389 58 390 38 q 390 17 388 -3 q 346 -1 298 0 q 249 0 197 0 q 147 0 98 0 q 48 -1 6 -3 q 11 42 25 75 q 44 76 57 81 q 70 86 78 99 q 87 112 94 136 q 100 159 106 197 z"},"`":{"x_min":0,"x_max":266,"ha":266,"o":"m 107 696 q 143 706 185 710 q 227 713 269 705 q 276 668 288 624 q 299 580 313 542 q 292 536 266 536 q 239 536 219 543 q 196 582 170 617 q 144 652 107 696 z"},"k":{"x_min":0,"x_max":611,"ha":611,"o":"m 241 286 q 257 325 281 358 q 305 391 335 415 q 365 439 400 453 q 436 467 475 467 q 532 467 559 434 q 586 402 577 354 q 566 302 528 269 q 491 236 428 216 q 442 199 451 186 q 460 172 471 150 q 482 127 490 118 q 499 110 511 110 q 523 110 534 118 q 545 107 555 88 q 565 69 566 52 q 533 20 496 6 q 459 -9 417 -9 q 372 -9 342 9 q 311 27 294 75 q 284 103 272 129 q 259 155 244 178 q 242 171 240 164 q 239 157 237 149 l 207 0 l 14 0 l 103 506 q 107 533 108 550 q 110 567 105 576 q 100 586 87 590 q 74 594 50 594 q 50 612 53 632 q 56 652 63 669 q 125 671 183 680 q 241 690 291 710 q 301 701 308 694 q 314 686 317 676 q 320 667 320 654 q 320 641 317 622 q 305 553 296 504 q 286 455 278 418 q 269 380 260 349 q 251 318 240 286 z m 396 296 q 400 312 392 324 q 384 337 367 337 q 338 337 310 307 q 282 277 262 229 q 316 232 353 248 q 390 264 396 296 z"},"u":{"x_min":0,"x_max":670,"ha":670,"o":"m 384 156 q 346 78 282 34 q 218 -9 142 -9 q 113 -9 91 0 q 69 9 57 32 q 45 55 44 96 q 44 137 59 201 q 71 254 76 284 q 81 313 77 328 q 73 342 58 346 q 44 349 18 351 q 18 369 21 389 q 24 409 31 426 q 93 428 151 438 q 209 447 259 467 q 274 458 282 448 q 289 438 290 420 q 291 402 286 371 q 280 340 269 288 q 260 245 257 218 q 254 192 256 178 q 259 163 266 158 q 274 153 286 153 q 301 153 320 166 q 338 180 357 210 q 376 240 394 288 q 411 337 424 408 l 433 458 l 626 458 l 582 205 q 576 172 574 152 q 571 132 572 122 q 572 111 576 108 q 579 104 585 104 q 595 104 614 118 q 625 109 635 90 q 645 70 646 52 q 613 20 570 6 q 528 -9 483 -9 q 443 -9 419 1 q 395 11 382 27 q 370 43 368 64 q 365 85 370 108 q 372 119 376 131 q 379 143 385 156 z"},"]":{"x_min":0,"x_max":326,"ha":326,"o":"m 189 -269 q 163 -268 134 -267 q 104 -266 74 -266 q 44 -266 15 -267 q -14 -268 -39 -269 q -40 -249 -35 -225 q -30 -201 -19 -184 q 11 -183 30 -178 q 49 -174 62 -164 q 74 -155 80 -138 q 87 -122 92 -96 l 211 575 q 215 599 214 614 q 214 630 206 639 q 197 648 178 652 q 159 656 127 659 q 127 682 132 704 q 138 727 149 742 q 202 740 254 740 q 305 740 367 742 z"},"U":{"x_min":0,"x_max":677,"ha":677,"o":"m 153 501 q 158 530 159 548 q 160 567 155 578 q 150 588 138 593 q 125 598 104 601 q 101 618 100 638 q 100 659 103 679 q 140 677 182 676 q 223 676 271 676 q 310 676 354 676 q 398 677 443 679 q 443 639 429 601 q 408 599 396 594 q 384 589 376 576 q 368 564 362 542 q 357 519 350 481 l 311 266 q 293 164 312 118 q 332 72 385 72 q 418 72 442 86 q 466 100 484 126 q 502 152 514 188 q 526 223 534 267 l 571 477 q 578 516 580 539 q 583 562 580 574 q 576 586 565 591 q 554 596 534 601 q 531 619 530 638 q 530 656 533 679 q 565 677 594 676 q 622 676 641 676 q 673 676 696 676 q 718 677 745 679 q 744 659 740 638 q 737 618 731 601 q 710 598 698 594 q 685 590 677 576 q 669 563 663 538 q 657 512 649 466 l 616 277 q 602 200 581 146 q 560 91 528 56 q 495 22 448 6 q 402 -9 337 -9 q 264 -9 215 8 q 166 26 139 60 q 112 93 105 143 q 98 193 110 259 z"},"o":{"x_min":0,"x_max":570,"ha":570,"o":"m 13 240 q 36 354 112 410 q 187 467 324 467 q 387 467 436 450 q 484 432 514 400 q 545 367 556 321 q 568 275 557 217 q 535 104 458 48 q 382 -9 243 -9 q 180 -9 132 9 q 85 27 54 60 q 24 92 13 138 q 2 184 13 240 z m 214 248 q 208 213 208 180 q 207 148 214 123 q 220 98 234 83 q 248 68 270 68 q 285 68 298 78 q 312 89 324 108 q 335 128 344 155 q 352 182 357 214 q 372 305 354 350 q 335 395 302 395 q 270 395 247 354 q 224 312 214 248 z"},"N":{"x_min":0,"x_max":712,"ha":712,"o":"m 175 573 q 166 588 154 594 q 141 599 109 601 q 105 619 105 638 q 105 656 108 679 q 139 677 172 676 q 206 676 235 676 q 263 676 294 676 q 325 677 351 679 q 410 586 465 488 q 520 391 569 292 q 576 334 582 376 q 587 417 592 458 q 596 497 597 522 q 598 547 592 562 q 586 578 572 586 q 557 595 530 601 q 527 619 527 639 q 527 659 529 679 q 563 677 594 676 q 625 676 648 676 q 677 676 710 676 q 743 677 775 679 q 774 659 770 638 q 766 616 760 601 q 739 594 724 586 q 710 577 700 562 q 690 547 684 522 q 677 497 671 458 q 654 343 635 230 q 616 116 592 1 q 571 -5 550 -7 q 528 -9 500 -9 q 438 112 374 230 q 309 347 240 464 q 219 339 195 218 q 187 179 185 154 q 183 129 189 114 q 195 98 210 90 q 224 81 251 75 q 254 57 254 37 q 254 17 252 -3 q 218 -1 187 0 q 156 0 133 0 q 104 0 71 0 q 38 -1 6 -3 q 7 17 11 38 q 15 60 21 75 q 43 82 58 90 q 73 99 84 114 q 95 130 103 154 q 111 179 119 218 q 136 303 152 389 q 167 475 181 563 z"},"+":{"x_min":0,"x_max":535,"ha":535,"o":"m 521 305 q 520 282 515 260 q 510 239 497 222 l 308 222 q 287 111 269 0 q 244 -2 222 1 q 199 4 182 16 l 222 221 q 176 220 128 220 q 80 220 26 218 q 27 242 32 264 q 38 286 51 305 l 238 305 l 276 504 q 299 508 320 506 q 342 505 363 496 q 352 448 342 400 q 333 353 324 305 z"},"G":{"x_min":0,"x_max":673,"ha":673,"o":"m 452 685 q 520 685 576 672 q 633 660 674 634 q 664 603 656 560 q 647 518 642 480 q 619 470 593 468 q 567 465 542 469 q 548 546 526 576 q 503 607 448 607 q 407 607 374 585 q 341 563 316 526 q 292 490 276 443 q 260 396 251 347 q 240 286 242 235 q 244 184 257 148 q 270 111 294 91 q 319 71 354 71 q 371 71 380 73 q 390 75 398 80 q 410 87 416 102 q 423 118 429 155 q 434 184 434 202 q 433 221 426 232 q 419 242 405 247 q 391 252 370 255 q 367 272 366 292 q 366 313 369 333 q 406 331 446 330 q 486 330 519 330 q 558 330 594 330 q 631 331 676 333 q 676 293 662 255 q 648 253 639 250 q 630 247 624 236 q 617 224 611 200 q 605 177 598 135 q 595 110 596 94 q 597 77 602 54 q 552 27 484 9 q 416 -9 343 -9 q 261 -9 200 18 q 138 46 100 96 q 63 145 50 213 q 37 281 51 363 q 65 445 104 506 q 142 566 196 606 q 251 646 317 666 q 383 685 452 685 z"},"q":{"x_min":0,"x_max":586,"ha":586,"o":"m 333 116 q 291 55 240 23 q 189 -9 135 -9 q 87 -9 58 16 q 30 40 18 76 q 5 113 4 155 q 4 197 11 232 q 20 280 40 322 q 61 364 98 396 q 134 427 187 446 q 240 465 314 467 q 399 467 468 444 q 536 420 576 378 q 562 357 551 327 q 540 297 530 241 l 445 -242 l 252 -242 l 291 -19 q 294 0 298 16 q 302 32 306 47 q 311 62 318 78 q 325 95 334 116 z m 368 382 q 357 387 338 390 q 319 393 307 393 q 288 393 274 383 q 259 373 248 356 q 237 339 230 315 q 222 291 216 264 q 203 196 207 160 q 211 124 240 124 q 252 124 268 134 q 283 144 299 168 q 315 192 330 233 q 345 274 357 336 z"},"d":{"x_min":0,"x_max":617,"ha":617,"o":"m 512 182 q 508 158 506 142 q 504 127 504 118 q 504 110 507 107 q 510 104 515 104 q 522 104 529 107 q 536 110 549 118 q 559 108 569 88 q 579 69 581 52 q 548 20 510 6 q 472 -9 427 -9 q 395 -9 375 2 q 355 12 344 28 q 332 45 330 66 q 327 88 331 111 l 330 111 q 288 52 238 22 q 188 -9 135 -9 q 87 -9 58 16 q 30 40 18 76 q 5 113 4 155 q 4 197 11 232 q 20 278 41 320 q 62 363 98 396 q 135 428 188 448 q 242 467 314 467 q 331 467 345 466 q 359 465 373 463 q 373 476 374 487 q 375 498 376 506 q 380 533 382 550 q 383 567 378 576 q 373 586 360 590 q 347 594 323 594 q 323 612 326 632 q 329 652 336 669 q 398 671 456 680 q 514 690 564 710 q 574 701 580 694 q 587 686 590 676 q 593 667 593 654 q 593 641 590 622 z m 368 382 q 357 387 338 390 q 319 393 307 393 q 288 393 274 383 q 259 373 248 356 q 237 339 230 315 q 222 291 216 264 q 203 196 207 160 q 211 124 240 124 q 252 124 268 134 q 283 144 299 168 q 315 192 330 233 q 345 274 357 336 z"},"1":{"x_min":0,"x_max":408,"ha":408,"o":"m 124 325 q 129 354 130 372 q 131 391 126 402 q 121 412 108 417 q 96 422 75 425 q 72 442 72 462 q 71 483 74 503 q 111 501 152 500 q 194 500 242 500 q 281 500 325 500 q 369 501 414 503 q 414 463 400 425 q 379 423 367 418 q 355 413 347 400 q 339 388 334 366 q 328 343 321 305 l 297 180 q 291 147 290 128 q 289 109 294 98 q 299 88 310 83 q 322 78 340 75 q 343 55 344 36 q 344 18 342 -3 q 299 -1 264 0 q 228 0 179 0 q 124 0 82 0 q 39 -1 4 -3 q 6 19 10 37 q 15 55 23 75 q 41 78 53 82 q 65 86 72 96 q 80 107 86 126 q 91 145 97 177 z"},"5":{"x_min":0,"x_max":457,"ha":457,"o":"m 105 503 q 162 501 209 500 q 256 500 302 500 q 351 500 360 555 q 383 559 411 558 q 439 556 460 548 q 447 505 440 460 q 434 415 430 373 q 418 343 378 343 q 291 343 232 343 q 174 343 134 341 l 119 288 q 281 267 348 206 q 416 145 393 31 q 384 -16 356 -53 q 328 -90 286 -116 q 244 -143 190 -157 q 137 -171 77 -171 q 39 -171 7 -165 q -25 -159 -42 -148 q -34 -105 -9 -78 q 11 -85 31 -88 q 51 -90 72 -90 q 126 -90 160 -66 q 193 -41 201 1 q 213 62 174 94 q 135 125 34 138 q 23 154 18 170 q 14 186 16 206 z"}}}
